<svg xmlns="http://www.w3.org/2000/svg" width="760" height="430" viewBox="0 0 760 430" role="img" aria-labelledby="title desc">
  <title id="title">论文状态统计柱状图</title>
  <desc id="desc">待投稿13，需修订1，内审中47，外审中7。</desc>
  <rect width="760" height="430" fill="#ffffff"/>
  <text x="30" y="34" fill="#111827" font-family="Arial, Microsoft YaHei, sans-serif" font-size="22" font-weight="700">论文状态统计</text>
  <text x="30" y="58" fill="#6b7280" font-family="Arial, Microsoft YaHei, sans-serif" font-size="13">共 68 篇/项；已接收论文不纳入统计</text>

  <g font-family="Arial, Microsoft YaHei, sans-serif" font-size="12" fill="#6b7280">
    <line x1="64" y1="318" x2="720" y2="318" stroke="#d1d5db" stroke-width="1"/>
    <line x1="64" y1="270" x2="720" y2="270" stroke="#e5e7eb" stroke-width="1"/>
    <line x1="64" y1="222" x2="720" y2="222" stroke="#e5e7eb" stroke-width="1"/>
    <line x1="64" y1="174" x2="720" y2="174" stroke="#e5e7eb" stroke-width="1"/>
    <line x1="64" y1="126" x2="720" y2="126" stroke="#e5e7eb" stroke-width="1"/>
    <line x1="64" y1="78" x2="720" y2="78" stroke="#e5e7eb" stroke-width="1"/>
    <text x="42" y="322" text-anchor="end">0</text>
    <text x="42" y="274" text-anchor="end">10</text>
    <text x="42" y="226" text-anchor="end">20</text>
    <text x="42" y="178" text-anchor="end">30</text>
    <text x="42" y="130" text-anchor="end">40</text>
    <text x="42" y="82" text-anchor="end">50</text>
  </g>

  <g font-family="Arial, Microsoft YaHei, sans-serif" font-size="14" font-weight="700" text-anchor="middle">
    <rect x="116" y="256" width="80" height="62" rx="4" fill="#f2f2f2" stroke="#9ca3af"/>

    <text x="156" y="248" fill="#111827">13</text>

    <rect x="276" y="313" width="80" height="5" rx="4" fill="#ffd9ec" stroke="#ec4899"/>

    <text x="316" y="305" fill="#111827">1</text>

    <rect x="436" y="92" width="80" height="226" rx="4" fill="#fff8d9" stroke="#eab308"/>

    <text x="476" y="84" fill="#111827">47</text>

    <rect x="596" y="284" width="80" height="34" rx="4" fill="#e8f9ee" stroke="#22c55e"/>

    <text x="636" y="276" fill="#111827">7</text>
  </g>

  <g font-family="Arial, Microsoft YaHei, sans-serif" font-size="12" fill="#374151" text-anchor="middle">
    <text x="156" y="346">待投稿</text>
    <text x="316" y="346">需修订</text>
    <text x="476" y="346">内审中</text>
    <text x="636" y="346">外审中</text>
  </g>
</svg>