<svg xmlns="http://www.w3.org/2000/svg" width="760" height="430" viewBox="0 0 760 430" role="img" aria-labelledby="title desc">
  <title id="title">论文状态统计柱状图</title>
  <desc id="desc">待投稿2，准备中2，需处理18，需修订1，待初审32，初审中6，外审中7。</desc>
  <rect width="760" height="430" fill="#ffffff"/>
  <text x="30" y="34" fill="#111827" font-family="Arial, Microsoft YaHei, sans-serif" font-size="22" font-weight="700">论文状态统计</text>
  <text x="30" y="58" fill="#6b7280" font-family="Arial, Microsoft YaHei, sans-serif" font-size="13">共 68 篇/项；已接收论文不纳入统计</text>

  <g font-family="Arial, Microsoft YaHei, sans-serif" font-size="12" fill="#6b7280">
    <line x1="64" y1="318" x2="720" y2="318" stroke="#d1d5db" stroke-width="1"/>
    <line x1="64" y1="258" x2="720" y2="258" stroke="#e5e7eb" stroke-width="1"/>
    <line x1="64" y1="198" x2="720" y2="198" stroke="#e5e7eb" stroke-width="1"/>
    <line x1="64" y1="138" x2="720" y2="138" stroke="#e5e7eb" stroke-width="1"/>
    <line x1="64" y1="78" x2="720" y2="78" stroke="#e5e7eb" stroke-width="1"/>
    <text x="42" y="322" text-anchor="end">0</text>
    <text x="42" y="262" text-anchor="end">10</text>
    <text x="42" y="202" text-anchor="end">20</text>
    <text x="42" y="142" text-anchor="end">30</text>
    <text x="42" y="82" text-anchor="end">40</text>
  </g>

  <g font-family="Arial, Microsoft YaHei, sans-serif" font-size="14" font-weight="700" text-anchor="middle">
    <rect x="91" y="306" width="54" height="12" rx="4" fill="#f2f2f2" stroke="#9ca3af"/>
    <text x="118" y="298" fill="#111827">2</text>

    <rect x="180" y="306" width="54" height="12" rx="4" fill="#fff1db" stroke="#f59e0b"/>
    <text x="207" y="298" fill="#111827">2</text>

    <rect x="269" y="210" width="54" height="108" rx="4" fill="#ffe5e5" stroke="#ef4444"/>
    <text x="296" y="202" fill="#111827">18</text>

    <rect x="358" y="312" width="54" height="6" rx="4" fill="#ffd9ec" stroke="#ec4899"/>
    <text x="385" y="304" fill="#111827">1</text>

    <rect x="447" y="126" width="54" height="192" rx="4" fill="#fff8d9" stroke="#eab308"/>
    <text x="474" y="118" fill="#111827">32</text>

    <rect x="536" y="282" width="54" height="36" rx="4" fill="#e8f1ff" stroke="#3b82f6"/>
    <text x="563" y="274" fill="#111827">6</text>

    <rect x="625" y="276" width="54" height="42" rx="4" fill="#e8f9ee" stroke="#22c55e"/>
    <text x="652" y="268" fill="#111827">7</text>
  </g>

  <g font-family="Arial, Microsoft YaHei, sans-serif" font-size="12" fill="#374151" text-anchor="middle">
    <text x="118" y="346">待投稿</text>
    <text x="207" y="346">准备中</text>
    <text x="296" y="346">需处理</text>
    <text x="385" y="346">需修订</text>
    <text x="474" y="346">待初审</text>
    <text x="563" y="346">初审中</text>
    <text x="652" y="346">外审中</text>
  </g>
</svg>
